<svg id="Layer_1" data-name="Layer 1" xmlns="http://www.w3.org/2000/svg" viewBox="0 0 477.45 726.73"><defs><style>.cls-1,.cls-2{fill:#fff;}.cls-2{stroke:#000;stroke-miterlimit:10;stroke-width:18px;}</style></defs><title>Nightingale</title><path class="cls-1" d="M838,769.86c-4.59,3.21-8.67,6.34-13,9-23.91,14.89-47.92,29.62-71.82,44.52q-27.61,17.22-55.06,34.73a55.53,55.53,0,0,0-8.4,6.61c-4.54,4.33-5.16,10.4-1.24,15.47a29.52,29.52,0,0,0,8.2,7.29c12.7,7.45,26.34,11.62,40.92,10.92,3.88-.18,7.84-1.85,11.46-3.54,13.07-6.11,25.26-13.91,37.2-22,23.56-16,46.92-32.4,70.3-48.7a14,14,0,0,1,6.18-2.4c16.73-2.58,33.54-4.78,50.12-8.13,15-3,29.81-6.89,44.46-11.23,24.7-7.33,48.4-17.2,70.07-31.72,26.61-17.84,40.73-43.63,44.38-76.1,2-17.58.61-35-3-52.33a174.62,174.62,0,0,0-7.76-26.94c-.74-1.92-.51-4.38-.21-6.51a33.29,33.29,0,0,1,5.81-15,13.29,13.29,0,0,1,5.11-4.39c7.59-3.29,15.3-6.32,23-9.22,3.77-1.4,6.15-3.86,6.72-7.94a9.65,9.65,0,0,0-4.31-9.72,49.84,49.84,0,0,0-28.19-9.47c-2.41,0-4.81.13-7.22.06a12.07,12.07,0,0,1-3.31-.6c-14.44-4.63-29.07-8.1-44.16-8.94-8.7-.49-17.3.07-25.6,2.88-11.06,3.75-18.43,11.87-23.69,22.27-7,13.8-10,28.78-11.14,44.23a9.49,9.49,0,0,0,8.81,10.31c5.23.36,9.33-3.35,9.82-9,1-10.75,2.73-21.3,6.85-31.23a67,67,0,0,1,5.21-9.79c3.5-5.61,8.68-8.5,15-9.55,10.51-1.75,20.93-.66,31.23,1.63,8.51,1.89,16.88,4.56,25.32,6.82a40.25,40.25,0,0,0,4.41.71c-2.27,2.12-5.27,4.18-7.37,7-8.25,11-12.86,23.45-10.84,37.74.55,3.94,2.51,7.66,3.74,11.51a163.67,163.67,0,0,1,7.31,36.83,127.21,127.21,0,0,1-2,37.32c-5,23.49-17.86,40.92-37.58,53.16a228.9,228.9,0,0,1-49,22.92c-13.16,4.36-26.53,8.14-39.91,11.74-8.27,2.23-16.71,3.87-25.14,5.34-12.14,2.12-24.35,3.86-36.53,5.74a23,23,0,0,1-2.75.22c-5.39.17-9.94,2.13-14.42,5.39-27.5,20-55.29,39.62-84.1,57.6-6.45,4-13.2,7.53-19.77,11.36a17.93,17.93,0,0,1-12.06,2.12,73.57,73.57,0,0,1-19.8-5.78c4.65-3,8.93-5.89,13.3-8.59q50.82-31.39,101.67-62.79c7-4.34,13.84-9,20.53-13.85A53.13,53.13,0,0,0,854,780c1.22-1.37,2.09-1.34,3.58-.73,7.24,3,14.61,5.8,22.4,5.77a78.21,78.21,0,0,0,17.86-2c23.46-5.63,45.5-15.09,66.45-27.24,17.39-10.08,33.45-22,46.87-37.44,11.75-13.5,20.41-28.74,23.71-46.95,1.43-7.89,1.82-15.81-.88-23.57-4.23-12.17-13.23-18.13-25-20.21-8.92-1.59-17.77-.77-26.57,1.07a149.5,149.5,0,0,0-29.79,9.85,65.9,65.9,0,0,0-25.75,20c-18.06,23-36.35,45.81-54.57,68.68q-10.26,12.88-20.58,25.7c-.44.55-.93,1.06-1.66,1.89-7.72-4.63-15.48-9.17-23.12-13.91-4.6-2.85-9-5.94-13.47-9.08a7.88,7.88,0,0,1-2.63-3.27,169.57,169.57,0,0,1-10.07-35.66c-11-64.11,16-125.31,62.3-162.28C880.75,516.55,900.2,506,921.67,500c54.26-15.3,105.47-7.59,152.51,26a162.84,162.84,0,0,1,62.26,86.26c15.17,49,9.53,95.57-16,138.92-21.43,36.32-52.32,60.8-91,74.76a170.9,170.9,0,0,1-52.4,9.93,173.6,173.6,0,0,1-62.2-9.2c-5.51-1.86-10.74.82-12.26,6.14s1.36,10.57,6.85,12.43a192.47,192.47,0,0,0,113.33,3.2c35.41-9.85,65.94-28.3,91-56,30.06-33.32,46.87-72.93,49.42-119a183.71,183.71,0,0,0-5.58-55.72c-10.77-42.39-33.3-76.69-66.83-103.25-32-25.31-68.16-38.54-107.93-41.08a183.76,183.76,0,0,0-31.81.89c-33.65,3.71-64.46,15.3-92.06,35.4-32.9,24-56.35,55.62-69.63,95.25a183.34,183.34,0,0,0-9.53,59.51,190.11,190.11,0,0,0,16.17,76.71,10.06,10.06,0,0,0,3.35,4.17c10,6.63,20,13.12,30.11,19.58C831.92,766.53,834.66,768,838,769.86Zm30.93-5.19c.85-1.08,1.64-2.1,2.44-3.1q11-13.8,22-27.61,23.93-30.08,47.89-60.14c3.36-4.2,6.64-8.51,11.45-11.24a111.21,111.21,0,0,1,41-14c5.27-.67,10.59-.83,15.8.91,5.47,1.82,7.86,5.17,8,11.15.2,9-2.26,17.3-5.94,25.23-6.11,13.21-15.35,23.82-26,33.22-15.33,13.59-32.65,23.88-51,32.39-14.13,6.55-28.63,12-43.86,15.24A35.36,35.36,0,0,1,868.92,764.67Z" transform="translate(-685.89 -171.79)"/><path class="cls-2" d="M873,866" transform="translate(-685.89 -171.79)"/><path class="cls-1" d="M952.66,476.7H930.77V298.58c-.34-36.84,7-68.54,21.1-91.58,13.5-22,32.91-34.81,53.28-35.2h1c35.36,0,71.8,37.47,74.25,121.78,0,.57.06,1.14.1,1.71a34.64,34.64,0,0,1,0,6.55C1072.8,370.32,1038,411,974,426.22L969,404.92c54.63-13,83.14-46.52,89.73-105.53a18.77,18.77,0,0,0-.08-2.57c-.06-.88-.12-1.75-.15-2.62-2-69.21-28.46-100.52-52.38-100.52h-.53c-26.11.5-53.52,37.4-52.9,104.8Z" transform="translate(-685.89 -171.79)"/><path class="cls-1" d="M953.27,406.06q8.58-1.26,17.26-2c56.67-13.1,99-51.82,99-112.42" transform="translate(-685.89 -171.79)"/><path class="cls-1" d="M974.19,427a250.62,250.62,0,0,0-26.63,3.4A149.67,149.67,0,0,0,974.19,427Z" transform="translate(-685.89 -171.79)"/><path class="cls-1" d="M953.27,406.86a125.68,125.68,0,0,0,17.26-2.76q-8.67.7-17.26,2Z" transform="translate(-685.89 -171.79)"/><path class="cls-1" d="M991.41,403.18q-11.58-.09-23,.92A113.29,113.29,0,0,1,952,406.86v-.8q-11,1.69-21.88,4.39v20H941.1c1.85,0,3.69-.05,5.53-.13a225.57,225.57,0,0,1,25.22-3.4,138.41,138.41,0,0,0,48.46-21.84A249.7,249.7,0,0,0,991.41,403.18Z" transform="translate(-685.89 -171.79)"/><path class="cls-2" d="M847.55,909" transform="translate(-685.89 -171.79)"/><path class="cls-1" d="M742,677c0-122.83,88.79-225.29,205.56-246.61-1.94.08-3.89.13-5.84.13H930.16v-20A273.86,273.86,0,0,0,737.08,775.21,11.57,11.57,0,0,0,756,779.29h0a11.59,11.59,0,0,0,2.66-12.45A250.6,250.6,0,0,1,742,677Z" transform="translate(-685.89 -171.79)"/></svg>